<svg xmlns="http://www.w3.org/2000/svg" xmlns:xlink="http://www.w3.org/1999/xlink" fill="none" version="1.1" width="14" height="14" viewBox="0 0 14 14"><defs><clipPath id="master_svg0_25_6325"><rect x="0" y="0" width="14" height="14" rx="0"/></clipPath></defs><g clip-path="url(#master_svg0_25_6325)"><g><path d="M7.0000440234375,3.79167C9.1888440234375,3.78439,11.1884740234375,5.0313,12.1450740234375,7C11.1825740234375,8.96583,9.2167040234375,10.20833,7.0000440234375,10.20833C4.7833740234375,10.20833,2.8175440234375,8.96583,1.8550440234375,7C2.8116540234375,5.0313,4.8112440234375,3.78439,7.0000440234375,3.79167ZM7.0000440234375,2.625C4.0833740234375,2.625,1.5925440234375,4.43917,0.5833740234375,7C1.5925440234375,9.56083,4.0833740234375,11.375,7.0000440234375,11.375C9.9167040234375,11.375,12.4075740234375,9.56083,13.4166740234375,7C12.4075740234375,4.43917,9.9167040234375,2.625,7.0000440234375,2.625ZM7.0000440234375,5.54167C7.8054540234375,5.54167,8.4583740234375,6.19459,8.4583740234375,7C8.4583740234375,7.80542,7.8054540234375,8.45833,7.0000440234375,8.45833C6.1946240234375,8.45833,5.5417040234375,7.80542,5.5417040234375,7C5.5417040234375,6.19459,6.1946240234375,5.54167,7.0000440234375,5.54167ZM7.0000440234375,4.375C5.5533740234375,4.375,4.3750440234375,5.55333,4.3750440234375,7C4.3750440234375,8.446670000000001,5.5533740234375,9.625,7.0000440234375,9.625C8.446704023437501,9.625,9.6250440234375,8.446670000000001,9.6250440234375,7C9.6250440234375,5.55333,8.446704023437501,4.375,7.0000440234375,4.375Z" fill="#203360" fill-opacity="1" style="mix-blend-mode:passthrough"/></g></g></svg>