<svg xmlns="http://www.w3.org/2000/svg" xmlns:xlink="http://www.w3.org/1999/xlink" fill="none" version="1.1" width="20" height="20" viewBox="0 0 20 20"><g><path d="M10,5.45455C7.49091,5.45455,5.45455,7.49091,5.45455,10C5.45455,12.5091,7.49091,14.5455,10,14.5455C12.5091,14.5455,14.5455,12.5091,14.5455,10C14.5455,7.49091,12.5091,5.45455,10,5.45455ZM0.909091,10.9091L2.72727,10.9091C3.22727,10.9091,3.63636,10.5,3.63636,10C3.63636,9.5,3.22727,9.09091,2.72727,9.09091L0.909091,9.09091C0.409091,9.09091,0,9.5,0,10C0,10.5,0.409091,10.9091,0.909091,10.9091ZM17.2727,10.9091L19.0909,10.9091C19.5909,10.9091,20,10.5,20,10C20,9.5,19.5909,9.09091,19.0909,9.09091L17.2727,9.09091C16.7727,9.09091,16.3636,9.5,16.3636,10C16.3636,10.5,16.7727,10.9091,17.2727,10.9091ZM9.09091,0.909091L9.09091,2.72727C9.09091,3.22727,9.5,3.63636,10,3.63636C10.5,3.63636,10.9091,3.22727,10.9091,2.72727L10.9091,0.909091C10.9091,0.409091,10.5,0,10,0C9.5,0,9.09091,0.409091,9.09091,0.909091ZM9.09091,17.2727L9.09091,19.0909C9.09091,19.5909,9.5,20,10,20C10.5,20,10.9091,19.5909,10.9091,19.0909L10.9091,17.2727C10.9091,16.7727,10.5,16.3636,10,16.3636C9.5,16.3636,9.09091,16.7727,9.09091,17.2727ZM4.53636,3.25455C4.18261,2.90007,3.6083,2.90007,3.25455,3.25455C2.90007,3.6083,2.90007,4.18261,3.25455,4.53636L4.21818,5.5C4.57273,5.85455,5.15455,5.85455,5.5,5.5C5.84545,5.14545,5.85455,4.56364,5.5,4.21818L4.53636,3.25455ZM15.7818,14.5C15.4281,14.1455,14.8538,14.1455,14.5,14.5C14.1455,14.8538,14.1455,15.4281,14.5,15.7818L15.4636,16.7455C15.8182,17.1,16.4,17.1,16.7455,16.7455C17.0999,16.3917,17.0999,15.8174,16.7455,15.4636L15.7818,14.5ZM16.7455,4.53636C17.0999,4.18261,17.0999,3.6083,16.7455,3.25455C16.3917,2.90007,15.8174,2.90007,15.4636,3.25455L14.5,4.21818C14.1455,4.57273,14.1455,5.15455,14.5,5.5C14.8545,5.84546,15.4364,5.85455,15.7818,5.5L16.7455,4.53636ZM5.5,15.7818C5.85448,15.4281,5.85448,14.8538,5.5,14.5C5.14625,14.1455,4.57193,14.1455,4.21818,14.5L3.25455,15.4636C2.9,15.8182,2.9,16.4,3.25455,16.7455C3.60909,17.0909,4.19091,17.1,4.53636,16.7455L5.5,15.7818Z" fill="#000000" fill-opacity="1" style="mix-blend-mode:passthrough"/></g></svg>