<svg xmlns="http://www.w3.org/2000/svg" xmlns:xlink="http://www.w3.org/1999/xlink" fill="none" version="1.1" width="114.4501953125" height="12.826171875" viewBox="0 0 114.4501953125 12.826171875"><g><g><path d="M0,6.41298C0,2.70879,2.68842,0,6.34601,0C9.47267,0,11.633,1.83794,12.2678,4.40825L10.6525,4.40825C10.1385,2.67773,8.58214,1.48449,6.37691,1.48449C3.59579,1.48449,1.5872,3.5345,1.5872,6.41298C1.5872,9.29146,3.61265,11.3415,6.37691,11.3415C8.64395,11.3415,10.3351,9.99553,10.7733,8.25092L12.3886,8.25092C11.8605,10.8071,9.54852,12.826,6.346,12.826C2.69121,12.826,-0.00000857304,10.1171,0,6.41298Z" fill="#23374D" fill-opacity="1" style="mix-blend-mode:passthrough"/></g><g><path d="M24.61157300262451,0.28842076659202576L24.61157300262451,12.548920766592026L23.024323002624513,12.548920766592026L23.024323002624513,7.009630766592026L15.998473002624511,7.009630766592026L15.998473002624511,12.548920766592026L14.411273002624512,12.548920766592026L14.411273002624512,0.28842076659202576L15.998473002624511,0.28842076659202576L15.998473002624511,5.539260766592026L23.024323002624513,5.539260766592026L23.024323002624513,0.28842076659202576L24.61157300262451,0.28842076659202576Z" fill="#23374D" fill-opacity="1" style="mix-blend-mode:passthrough"/></g><g><path d="M34.915727621459965,9.517681714611053L29.097847621459962,9.517681714611053L27.889887621459962,12.548851714611054L26.22682762145996,12.548851714611054L31.213177621459963,0.28835171461105347L32.89028762145996,0.28835171461105347L37.85982762145996,12.548851714611054L36.123687621459965,12.548851714611054L34.915727621459965,9.517681714611053ZM34.35669762145996,8.095451714611054L32.01380762145996,2.1716517146110537L29.656877621459962,8.095451714611054L34.35669762145996,8.095451714611054Z" fill="#23374D" fill-opacity="1" style="mix-blend-mode:passthrough"/></g><g><path d="M40.958332385253904,0.288420732954216L48.2847723852539,9.840060032954216L48.2847723852539,0.212070032954216L49.885982385253904,0.212070032954216L49.885982385253904,12.472570032954216L48.39152238525391,12.472570032954216L41.06508238525391,2.920930032954216L41.06508238525391,12.548970032954216L39.477882385253906,12.548970032954216L39.477882385253906,0.288420732954216L40.958332385253904,0.288420732954216Z" fill="#23374D" fill-opacity="1" style="mix-blend-mode:passthrough"/></g><g><path d="M57.909137980957034,8.446080766592026L57.909137980957034,12.548920766592026L56.307887980957034,12.548920766592026L56.307887980957034,8.446080766592026L51.56311798095703,0.28842076659202576L53.36101798095703,0.28842076659202576L57.16750798095703,6.947430766592026L61.09477798095703,0.28842076659202576L62.80281798095703,0.28842076659202576L57.90632798095703,8.446080766592026L57.909137980957034,8.446080766592026Z" fill="#23374D" fill-opacity="1" style="mix-blend-mode:passthrough"/></g><g><path d="M73.09293223632812,0.2884207702325439L73.09293223632812,1.7107104102325439L66.08394223632813,1.7107104102325439L66.08394223632813,5.567530410232544L72.56480223632812,5.567530410232544L72.56480223632812,6.989820410232544L66.08394223632813,6.989820410232544L66.08394223632813,11.123790410232544L73.23058223632813,11.123790410232544L73.23058223632813,12.546090410232544L64.49954223632812,12.546090410232544L64.49954223632812,0.28559041023254395L73.09573223632813,0.28559041023254395L73.09293223632812,0.2884207702325439Z" fill="#23374D" fill-opacity="1" style="mix-blend-mode:passthrough"/></g><g><path d="M74.55935668945312,6.41298C74.55935668945312,2.70879,77.26462668945312,0,80.93627668945312,0C84.60795668945312,0,87.32725668945312,2.70886,87.32725668945312,6.41298C87.32725668945312,10.1171,84.62195668945313,12.826,80.95312668945313,12.826C77.28429668945313,12.826,74.56216864945313,10.1171,74.56216864945313,6.41298L74.55935668945312,6.41298ZM85.74005668945313,6.41298C85.74005668945313,3.52035,83.70053668945313,1.47034,80.93627668945312,1.47034C78.17201668945313,1.47034,76.14656668945312,3.52035,76.14656668945312,6.41298C76.14656668945312,9.30561,78.18605668945312,11.3556,80.95031668945313,11.3556C83.71457668945312,11.3556,85.74005668945313,9.28863,85.74005668945313,6.41298Z" fill="#23374D" fill-opacity="1" style="mix-blend-mode:passthrough"/></g><g><path d="M90.89210924072266,0.288420732954216L98.21854924072265,9.840060032954216L98.21854924072265,0.212070032954216L99.81975924072266,0.212070032954216L99.81975924072266,12.472570032954216L98.32529924072266,12.472570032954216L90.99885924072265,2.920930032954216L90.99885924072265,12.548970032954216L89.41165924072266,12.548970032954216L89.41165924072266,0.288420732954216L90.89210924072266,0.288420732954216Z" fill="#23374D" fill-opacity="1" style="mix-blend-mode:passthrough"/></g><g><path d="M101.8452377319336,6.41298C101.8452377319336,2.70879,104.4886977319336,0,108.19125773193359,0C111.27295773193359,0,113.58493773193359,1.82096,114.2198377319336,4.16222L112.4978377319336,4.16222C111.9977377319336,2.61553,110.29256773193359,1.47034,108.2221777319336,1.47034C105.4269977319336,1.47034,103.4324677319336,3.53733,103.4324677319336,6.41298C103.4324677319336,9.28863,105.4269977319336,11.3868,108.2530677319336,11.3868C110.73079773193359,11.3868,112.57363773193359,9.73541,112.7562377319336,7.51578L107.93843773193359,7.51578L107.93843773193359,6.1218L114.4502377319336,6.1218L114.4502377319336,6.67316C114.4502377319336,10.2868,111.73087773193359,12.826,108.1968877319336,12.826C104.6628877319336,12.826,101.85086164193359,10.1172,101.85086164193359,6.41305L101.8452377319336,6.41298Z" fill="#23374D" fill-opacity="1" style="mix-blend-mode:passthrough"/></g></g></svg>