<svg xmlns="http://www.w3.org/2000/svg" xmlns:xlink="http://www.w3.org/1999/xlink" fill="none" version="1.1" width="33.78076171875" height="32" viewBox="0 0 33.78076171875 32"><g><g><path d="M26.277385711669922,28.304309844970703Q26.277385711669922,28.304309844970703,26.28167011166992,28.304309844970703Q26.28167011166992,28.304309844970703,26.277385711669922,28.304309844970703Z" fill="#23374D" fill-opacity="1" style="mix-blend-mode:passthrough"/></g><g><path d="M33.1712371257782,16.1456268611145C33.123437125778196,16.091916861114502,33.0757371257782,16.043806861114504,33.0251371257782,15.995756861114502C32.9211371257782,15.899596861114501,32.8116371257782,15.814816861114503,32.6908371257782,15.744126861114502C32.3705371257782,15.549046861114501,31.9997371257782,15.441556861114503,31.6177371257782,15.441556861114503C30.555837125778197,15.441556861114503,29.6681371257782,16.247446861114504,29.5501371257782,17.3162068611145C29.213037125778197,20.3757068611145,27.6904371257782,23.186306861114502,25.339137125778198,25.1288068611145C25.2183371257782,24.829106861114504,25.0919371257782,24.549206861114502,24.9683371257782,24.2891068611145C24.732337125778198,23.788606861114502,24.5019371257782,23.364406861114503,24.3109371257782,23.030806861114502C26.6117371257782,21.744206861114503,28.1511371257782,19.4199068611145,28.1511371257782,16.773306861114502C28.1511371257782,15.127666861114502,27.535937125778197,13.518776861114503,26.4178371257782,12.226546861114503L25.7605371257782,7.538356861114502C25.7015371257782,7.125539861114502,25.4346371257782,6.772089861114502,25.0413371257782,6.593914861114502C24.622737125778198,6.401657461114502,24.125537125778198,6.441213561114502,23.743437125778197,6.695738861114502L19.827437125778197,9.446986861114501L16.5884371257782,9.446986861114501L12.481337125778198,6.695738861114502C12.102097125778199,6.441282561114502,11.604877125778199,6.401657461114502,11.183497125778198,6.593914861114502C10.790207125778199,6.772020861114502,10.523327125778199,7.125470861114502,10.464337125778199,7.538356861114502L10.464337125778199,7.558166861114502L10.118797125778197,12.483826861114501C7.450047125778198,15.854306861114502,8.702957125778198,20.361506861114503,11.357667125778198,23.112806861114503C11.416657125778197,23.172206861114503,11.472837125778199,23.231506861114504,11.529017125778198,23.285306861114503C11.312717125778198,23.689606861114502,11.087977125778199,24.105306861114503,10.894137125778197,24.5436068611145C10.475567125778198,25.4795068611145,10.152497125778197,26.421106861114502,9.927767125778198,27.354206861114502C10.026087125778197,27.4277068611145,10.127217125778198,27.498406861114503,10.228357125778198,27.569106861114502C10.441857125778197,27.7190068611145,10.669397125778199,27.866006861114503,10.902567125778198,28.007406861114504C11.113257125778198,27.012106861114503,11.444737125778198,26.0054068611145,11.894217125778198,25.001706861114503C12.045917125778198,24.6596068611145,12.217237125778198,24.3315068611145,12.399837125778198,23.992206861114504C12.537537125778199,24.0799068611145,12.672337125778197,24.1562068611145,12.812837125778199,24.224106861114503C13.470137125778198,24.538006861114503,14.166837125778198,24.6171068611145,14.782037125778198,24.4447068611145C15.071437125778198,24.362606861114504,15.338337125778198,24.224106861114503,15.563037125778198,24.043206861114502Q15.703537125778197,23.9583068611145,15.858037125778198,23.7830068611145C16.0153371257782,23.6077068611145,16.189537125778198,23.344706861114503,16.2625371257782,22.9885068611145C16.268137125778196,22.9687068611145,16.273737125778197,22.9489068611145,16.276537125778198,22.9291068611145C16.380537125778197,22.465406861114502,16.310337125778197,21.9508068611145,16.0771371257782,21.475706861114503C15.675437125778199,20.6586068611145,14.855137125778198,20.1807068611145,14.079737125778198,20.310706861114504C13.745437125778198,20.3673068611145,13.419637125778198,20.534106861114502,13.113437125778198,20.8027068611145C12.635837125778199,21.221206861114503,12.332437125778199,21.7669068611145,12.071197125778198,22.2674068611145C9.773257125778198,19.8300068611145,8.697337125778198,15.910986861114502,11.071117125778198,13.057906861114503L11.186297125778198,12.919356861114501L11.551487125778198,7.685466861114502C11.562727125778197,7.643076861114502,11.613297125778198,7.6147768611145015,11.635767125778198,7.606286861114502C11.700377125778198,7.577986861114502,11.795887125778199,7.5667268611145015,11.880167125778199,7.623266861114502L16.2625371257782,10.558286861114503L20.170137125778197,10.558286861114503L24.350237125778197,7.620436861114502C24.4345371257782,7.5667268611145015,24.530037125778197,7.5780568611145025,24.5918371257782,7.606286861114502C24.6143371257782,7.617606861114502,24.6705371257782,7.645846861114502,24.676137125778197,7.696786861114502L25.3784371257782,12.7242668611145L25.4936371257782,12.851496861114502C26.499337125778197,13.959896861114501,27.052737125778197,15.353956861114503,27.052737125778197,16.779006861114503C27.052737125778197,20.208806861114503,23.959737125778197,22.996906861114503,20.156137125778198,22.996906861114503L16.846837125778197,22.996906861114503C16.7288371257782,23.503006861114503,16.464837125778196,23.867806861114502,16.2485371257782,24.0968068611145C16.360837125778197,24.102506861114502,16.473237125778198,24.105306861114503,16.5827371257782,24.105306861114503L20.156137125778198,24.105306861114503C21.2741371257782,24.105306861114503,22.3416371257782,23.893206861114503,23.3108371257782,23.5086068611145C23.4176371257782,23.692406861114502,23.5384371257782,23.910106861114503,23.670437125778196,24.159006861114502C23.799637125778197,24.4078068611145,23.9373371257782,24.685006861114502,24.0777371257782,24.9903068611145C24.229437125778198,25.3211068611145,24.3811371257782,25.683006861114503,24.5244371257782,26.073306861114503C24.6677371257782,26.460706861114502,24.8053371257782,26.873506861114503,24.926137125778197,27.3090068611145C25.069437125778197,27.832106861114504,25.190237125778197,28.3835068611145,25.268837125778198,28.954706861114502C24.7885371257782,29.231806861114503,24.2912371257782,29.483506861114503,23.782837125778197,29.7040068611145C23.2743371257782,29.9245068611145,22.7546371257782,30.1139068611145,22.223737125778197,30.2751068611145L22.223737125778197,26.966906861114502C22.223737125778197,26.661506861114503,21.979337125778198,26.4127068611145,21.675937125778198,26.4127068611145C21.372537125778198,26.4127068611145,21.1281371257782,26.661506861114503,21.1281371257782,26.966906861114502L21.1281371257782,30.557906861114503C20.113937125778197,30.7785068611145,19.066137125778198,30.8915068611145,17.9986371257782,30.8915068611145C17.0519371257782,30.8915068611145,16.1248371257782,30.7982068611145,15.225937125778199,30.6229068611145L15.225937125778199,27.091306861114504C15.225937125778199,26.7858068611145,14.981537125778198,26.537106861114502,14.678137125778198,26.537106861114502C14.374737125778198,26.537106861114502,14.130337125778198,26.7858068611145,14.130337125778198,27.091306861114504L14.130337125778198,30.3656068611145C12.930837125778199,30.0348068611145,11.790257125778199,29.5513068611145,10.731177125778197,28.940506861114503C10.385647125778199,28.739806861114502,10.051347125778198,28.527706861114503,9.722677125778198,28.3015068611145C5.848767125778198,25.6181068611145,3.3008071257781983,21.1081068611145,3.3008071257781983,16.004246861114503C3.3008071257781983,14.265296861114502,3.5957771257781985,12.596976861114502,4.140767125778198,11.041796861114502C3.792417125778198,10.897586861114501,3.469367125778198,10.702496861114502,3.185635125778198,10.464956861114501C2.5535611257781983,12.192646861114502,2.2108371257781982,14.055986861114501,2.2108371257781982,16.004246861114503C2.2108371257781982,23.6105068611145,7.478117125778199,29.9952068611145,14.512437125778199,31.606906861114503C14.540437125778197,31.6154068611145,14.571337125778198,31.623906861114502,14.602237125778199,31.626706861114503C15.697837125778198,31.8699068611145,16.832837125778198,32.0000068611145,17.9958371257782,32.0000068611145C19.1588371257782,32.0000068611145,20.369637125778198,31.8671068611145,21.5073371257782,31.607006861114503C21.692737125778198,31.564606861114502,21.8753371257782,31.5193068611145,22.0579371257782,31.471306861114503C23.6339371257782,31.0500068611145,25.1312371257782,30.382606861114503,26.5049371257782,29.486306861114503C26.4375371257782,29.0820068611145,26.358837125778198,28.683206861114503,26.2773371257782,28.310006861114502L26.2745371257782,28.310006861114502Q26.2745371257782,28.310006861114502,26.2773371257782,28.3072068611145C26.2605371257782,28.2280068611145,26.2436371257782,28.1517068611145,26.226837125778196,28.078106861114502C26.162237125778198,27.753006861114503,26.0919371257782,27.433406861114502,26.0105371257782,27.128006861114503C26.0105371257782,27.125206861114503,26.0105371257782,27.122406861114502,26.0105371257782,27.1196068611145C25.9739371257782,26.9810068611145,25.9346371257782,26.8425068611145,25.895337125778198,26.7067068611145C25.895337125778198,26.701106861114503,25.892537125778198,26.692606861114502,25.889737125778197,26.6869068611145C25.8841371257782,26.6671068611145,25.875637125778198,26.6445068611145,25.870037125778197,26.6247068611145C25.8503371257782,26.565406861114504,25.833537125778196,26.503206861114503,25.816637125778197,26.443806861114503C25.802637125778197,26.3986068611145,25.785737125778198,26.350506861114503,25.7717371257782,26.305206861114502C25.766137125778197,26.282606861114502,25.7576371257782,26.2572068611145,25.749237125778198,26.2345068611145C25.749237125778198,26.231706861114503,25.749237125778198,26.228906861114503,25.749237125778198,26.226106861114502C26.1004371257782,25.951806861114502,26.4375371257782,25.660506861114502,26.7549371257782,25.355106861114503C27.072337125778198,25.0497068611145,27.375737125778198,24.724606861114502,27.659537125778197,24.3909068611145C27.788737125778198,24.238206861114502,27.912337125778198,24.082706861114502,28.033137125778197,23.927306861114502L29.4405371257782,25.352406861114503C29.361937125778198,25.451406861114503,29.2804371257782,25.550306861114503,29.198937125778198,25.649306861114503C29.1708371257782,25.683206861114503,29.142737125778197,25.7143068611145,29.1146371257782,25.748306861114504C29.095037125778198,25.768106861114504,29.0781371257782,25.7907068611145,29.058537125778198,25.8105068611145C29.0472371257782,25.824606861114503,29.036037125778197,25.8360068611145,29.0248371257782,25.8500068611145C28.9405371257782,25.9490068611145,28.8506371257782,26.0480068611145,28.7635371257782,26.1441068611145C28.7073371257782,26.206306861114502,28.6483371257782,26.268506861114503,28.589337125778197,26.330706861114503C28.3871371257782,26.545606861114504,28.176437125778197,26.752006861114502,27.962937125778197,26.949906861114503C27.431937125778198,27.4504068611145,27.5302371257782,27.320406861114503,26.9403371257782,27.727506861114502C27.021837125778198,28.100806861114503,27.1004371257782,28.4995068611145,27.1679371257782,28.903806861114504C27.9572371257782,28.389106861114502,28.0500371257782,28.3807068611145,28.749437125778197,27.7190068611145C28.962937125778197,27.518306861114503,29.1708371257782,27.3119068611145,29.373137125778197,27.0970068611145C29.448937125778198,27.0178068611145,29.522037125778198,26.9386068611145,29.595037125778198,26.856606861114503C29.6681371257782,26.777406861114503,29.7411371257782,26.695406861114503,29.8113371257782,26.613406861114502C29.875937125778197,26.539906861114503,29.9377371257782,26.4692068611145,29.999537125778197,26.3957068611145C30.0445371257782,26.342006861114502,30.092237125778198,26.285406861114502,30.1372371257782,26.228806861114503Q30.1512371257782,26.211806861114503,30.1541371257782,26.206206861114502C30.176537125778196,26.1807068611145,30.196237125778197,26.155306861114504,30.215937125778197,26.129806861114503C30.235537125778198,26.107206861114502,30.252437125778197,26.0846068611145,30.272037125778198,26.0591068611145C30.2777371257782,26.053506861114503,30.2805371257782,26.047806861114502,30.286137125778197,26.0422068611145C30.345137125778198,25.968606861114502,30.4013371257782,25.895106861114503,30.4574371257782,25.821606861114503C30.4799371257782,25.7905068611145,30.502437125778197,25.762206861114503,30.524937125778198,25.7311068611145C30.558637125778198,25.685906861114503,30.592337125778197,25.640606861114502,30.626037125778197,25.5925068611145C30.626037125778197,25.5897068611145,30.631637125778198,25.586906861114503,30.6344371257782,25.581206861114502C30.648537125778198,25.561406861114502,30.662537125778197,25.541706861114502,30.6766371257782,25.524706861114502C30.6934371257782,25.502006861114502,30.7103371257782,25.4795068611145,30.7271371257782,25.4540068611145C30.735537125778198,25.4427068611145,30.7468371257782,25.428506861114503,30.755237125778198,25.4144068611145C30.774937125778198,25.389006861114503,30.791737125778198,25.3607068611145,30.8114371257782,25.335306861114503C30.845137125778198,25.287206861114502,30.878837125778198,25.2391068611145,30.912537125778197,25.191006861114502Q30.912537125778197,25.191006861114502,30.915337125778198,25.1882068611145C30.915337125778198,25.1854068611145,30.9181371257782,25.1826068611145,30.9210371257782,25.179706861114504C30.9406371257782,25.151406861114502,30.9603371257782,25.120406861114503,30.9799371257782,25.092006861114502C30.9940371257782,25.072206861114502,31.0080371257782,25.0525068611145,31.022137125778197,25.0298068611145C31.0277371257782,25.021406861114503,31.0333371257782,25.0129068611145,31.038937125778197,25.004406861114504C31.0502371257782,24.9874068611145,31.0614371257782,24.9704068611145,31.072637125778197,24.9535068611145C31.114837125778198,24.888506861114504,31.1569371257782,24.826306861114503,31.199137125778197,24.761206861114502C31.201937125778198,24.7556068611145,31.2047371257782,24.7527068611145,31.2075371257782,24.747106861114503C31.5502371257782,24.218306861114502,31.859237125778197,23.669806861114502,32.1373371257782,23.107106861114502C32.1430371257782,23.0957068611145,32.148637125778194,23.084406861114502,32.154237125778195,23.073106861114503C32.1570371257782,23.067406861114502,32.159837125778196,23.0590068611145,32.1626371257782,23.053306861114503C32.19913712577819,22.9798068611145,32.2357371257782,22.9034068611145,32.2694371257782,22.8299068611145C32.2750371257782,22.815706861114503,32.2834371257782,22.798806861114503,32.2918371257782,22.7847068611145C32.2975371257782,22.7705068611145,32.3059371257782,22.753506861114502,32.3115371257782,22.739506861114503C32.3396371257782,22.680106861114503,32.3649371257782,22.617906861114502,32.3930371257782,22.558506861114502C32.4014371257782,22.538706861114502,32.4126371257782,22.5161068611145,32.4211371257782,22.4935068611145C32.4267371257782,22.482206861114502,32.4295371257782,22.4737068611145,32.4351371257782,22.462406861114502C32.4660371257782,22.3917068611145,32.494137125778195,22.3238068611145,32.5250371257782,22.253106861114503C32.5334371257782,22.2333068611145,32.5419371257782,22.2164068611145,32.5503371257782,22.196606861114503C32.57283712577819,22.142906861114504,32.5952371257782,22.0863068611145,32.6177371257782,22.032606861114502C32.648637125778194,21.956206861114502,32.6795371257782,21.877006861114502,32.7076371257782,21.7979068611145L32.7273371257782,21.7498068611145Q32.73293712577819,21.730006861114504,32.738537125778194,21.721506861114502C32.744137125778195,21.704506861114503,32.7498371257782,21.690406861114504,32.7554371257782,21.673506861114504L32.783537125778196,21.597106861114504C32.8031371257782,21.546206861114502,32.8200371257782,21.4981068611145,32.8368371257782,21.447206861114502C32.8368371257782,21.4416068611145,32.8397371257782,21.435906861114503,32.84253712577819,21.430306861114502C32.8509371257782,21.4048068611145,32.8621371257782,21.379406861114504,32.8705371257782,21.353906861114503C32.876237125778204,21.3397068611145,32.8818371257782,21.3256068611145,32.8846371257782,21.311506861114502C32.9043371257782,21.255006861114502,32.923937125778195,21.198406861114503,32.9408371257782,21.1447068611145C32.9408371257782,21.141806861114503,32.9408371257782,21.136206861114502,32.943637125778196,21.1333068611145L32.988537125778194,21.000406861114502Q32.9942371257782,20.983506861114503,32.9970371257782,20.9778068611145C33.0166371257782,20.921306861114502,33.033537125778196,20.864706861114502,33.0503371257782,20.808106861114503C33.0503371257782,20.8025068611145,33.0503371257782,20.7996068611145,33.053237125778196,20.794006861114504C33.1571371257782,20.4632068611145,33.2470371257782,20.126606861114503,33.3285371257782,19.7873068611145C33.3285371257782,19.778806861114504,33.3313371257782,19.770306861114502,33.3341371257782,19.761906861114504C33.3341371257782,19.753406861114502,33.3369371257782,19.7449068611145,33.3397371257782,19.736406861114503C33.3509371257782,19.685506861114504,33.3650371257782,19.634606861114502,33.376237125778204,19.5837068611145C33.3818371257782,19.563906861114503,33.3846371257782,19.547006861114504,33.3903371257782,19.527106861114504C33.3959371257782,19.501706861114503,33.4015371257782,19.479106861114502,33.4071371257782,19.4536068611145C33.418337125778194,19.399906861114502,33.43243712577819,19.346206861114503,33.443637125778196,19.2896068611145C33.4549371257782,19.2416068611145,33.463337125778196,19.193406861114504,33.4717371257782,19.145406861114502C33.4717371257782,19.139706861114504,33.4717371257782,19.1312068611145,33.4745371257782,19.125606861114502C33.4745371257782,19.1171068611145,33.4773371257782,19.108606861114502,33.4802371257782,19.100106861114504C33.4914371257782,19.0379068611145,33.50263712577819,18.978506861114504,33.5139371257782,18.919206861114503C33.527937125778195,18.8513068611145,33.5391371257782,18.7806068611145,33.5504371257782,18.7128068611145C33.5672371257782,18.6166068611145,33.5813371257782,18.523306861114502,33.5953371257782,18.4300068611145C33.6038371257782,18.367806861114502,33.6150371257782,18.3056068611145,33.623437125778196,18.2434068611145C33.637537125778195,18.144406861114504,33.6515371257782,18.042706861114503,33.662837125778196,17.9437068611145C33.6684371257782,17.8900068611145,33.6740371257782,17.8362068611145,33.68243712577819,17.782506861114502C33.7470371257782,17.1886068611145,33.5588371257782,16.5921068611145,33.1655371257782,16.145276861114503L33.1712371257782,16.1456268611145ZM12.9589371257782,22.9234068611145C13.214537125778199,22.425706861114502,13.456137125778199,21.959206861114502,13.824137125778199,21.6340068611145C13.975837125778199,21.5011068611145,14.124737125778198,21.4191068611145,14.253937125778199,21.3964068611145C14.577037125778197,21.3427068611145,14.933737125778197,21.6425068611145,15.091137125778198,21.9619068611145C15.211937125778197,22.2080068611145,15.251237125778198,22.4596068611145,15.203437125778198,22.6745068611145C15.133237125778198,22.991206861114502,14.841037125778199,23.271206861114504,14.481537125778198,23.3729068611145C14.121937125778198,23.474706861114502,13.692137125778197,23.421006861114503,13.273537125778198,23.2202068611145C13.152737125778199,23.163706861114502,13.034737125778198,23.093006861114503,12.913937125778197,23.011006861114502C12.928037125778198,22.9827068611145,12.944837125778198,22.954406861114503,12.9589371257782,22.9234068611145ZM31.7778371257782,21.1674068611145C31.3536371257782,22.3240068611145,30.788937125778197,23.426706861114504,30.095137125778198,24.4447068611145L28.6680371257782,22.9997068611145C29.182137125778198,22.1967068611145,29.606337125778197,21.3399068611145,29.934937125778198,20.443606861114503C29.999637125778197,20.2710068611145,30.058637125778198,20.095806861114504,30.111937125778198,19.9204068611145L31.9576371257782,20.6443068611145C31.901437125778198,20.819706861114504,31.839637125778196,20.9949068611145,31.7778371257782,21.1674068611145ZM32.603737125778196,17.6612068611145C32.59253712577819,17.7659068611145,32.578437125778194,17.867706861114502,32.5672371257782,17.972306861114504C32.5559371257782,18.0713068611145,32.5419371257782,18.1674068611145,32.5250371257782,18.266406861114504C32.4576371257782,18.707506861114503,32.3705371257782,19.1458068611145,32.263837125778196,19.5784068611145L30.4041371257782,18.848806861114504C30.5080371257782,18.3880068611145,30.5867371257782,17.9185068611145,30.6372371257782,17.4435068611145C30.6934371257782,16.937406861114503,31.114837125778198,16.5557068611145,31.6205371257782,16.5557068611145C31.9070371257782,16.5557068611145,32.168337125778194,16.6744068611145,32.3593371257782,16.889306861114502C32.5503371257782,17.104206861114502,32.6374371257782,17.378506861114502,32.603737125778196,17.664106861114504L32.603737125778196,17.6612068611145Z" fill="#23374D" fill-opacity="1" style="mix-blend-mode:passthrough"/></g><g><path d="M18.00141125640869,1.10847C25.68741125640869,1.10847,32.01101125640869,7.11712,32.64311125640869,14.7403C33.07291125640869,14.8987,33.46331125640869,15.1588,33.78081125640869,15.5038C33.52511125640869,6.91071,26.54421125640869,0,18.00141125640869,0C13.85784125640869,0,10.082261256408692,1.62587,7.261811256408691,4.28096C7.593296256408691,4.45906,7.891076256408692,4.68811,8.152331256408692,4.95672C10.759281256408691,2.56458,14.217421256408691,1.10833,18.00141125640869,1.10847L18.00141125640869,1.10847Z" fill="#23374D" fill-opacity="1" style="mix-blend-mode:passthrough"/></g><g><path d="M4.463838868103028,10.210500344848633C4.792518868103027,10.346210344848632,5.152098868103027,10.422570344848634,5.528528868103027,10.422570344848634C7.079218868103028,10.422570344848634,8.337748868103027,9.147310344848632,8.337748868103027,7.577980344848633C8.337748868103027,6.794730344848633,8.025918868103027,6.087830344848633,7.523078868103028,5.5731893448486325C7.261818868103028,5.307411344848633,6.949998868103028,5.092511344848633,6.601648868103027,4.948300344848633C6.270168868103028,4.809751044848633,5.910588868103027,4.733400344848633,5.5313388681030276,4.733400344848633C3.9806588681030273,4.733400344848633,2.7221288681030273,6.008650344848633,2.7221288681030273,7.577980344848633C2.7221288681030273,8.364060344848633,3.0339518681030273,9.070960344848633,3.5396108681030274,9.585610344848632C3.800868868103027,9.851380344848632,4.115498868103027,10.066280344848632,4.463838868103028,10.210500344848633Z" fill="#23374D" fill-opacity="1" style="mix-blend-mode:passthrough"/></g><g><ellipse cx="1.2613370418548584" cy="9.936221241950989" rx="1.2613370418548584" ry="1.2780753374099731" fill="#23374D" fill-opacity="1" style="mix-blend-mode:passthrough"/></g></g></svg>