<svg xmlns="http://www.w3.org/2000/svg" xmlns:xlink="http://www.w3.org/1999/xlink" fill="none" version="1.1" width="14" height="14" viewBox="0 0 14 14"><defs><clipPath id="master_svg0_34_0656"><rect x="0" y="0" width="14" height="14" rx="0"/></clipPath></defs><g clip-path="url(#master_svg0_34_0656)"><g><path d="M10.675125156250001,3.33096415625C10.44813515625,3.10350725625,10.07961515625,3.10350725625,9.85262515625,3.33096415625L7.00013515625,6.17763515625L4.14763015625,3.32513015625C3.92050315625,3.09800345625,3.55225815625,3.09800345625,3.32513015625,3.32513015625C3.09800345625,3.55225815625,3.09800345625,3.92050315625,3.32513015625,4.14763015625L6.17763515625,7.00013515625L3.32513015625,9.85262515625C3.09800345625,10.07975515625,3.09800345625,10.44800515625,3.32513015625,10.675125156250001C3.55225715625,10.90225515625,3.92050315625,10.90225515625,4.14763015625,10.675125156250001L7.00013515625,7.82262515625L9.85262515625,10.675125156250001C10.07975515625,10.90225515625,10.44800515625,10.90225515625,10.67513515625,10.67513515625C10.90225515625,10.44800515625,10.90225515625,10.07975515625,10.675125156250001,9.85262515625L7.82262515625,7.00013515625L10.675125156250001,4.14763015625C10.89679515625,3.92596415625,10.89679515625,3.5526301562500002,10.675125156250001,3.33096415625Z" fill="#415367" fill-opacity="1" style="mix-blend-mode:passthrough"/></g></g></svg>